<svg xmlns="http://www.w3.org/2000/svg" version="1.1" xmlns:xlink="http://www.w3.org/1999/xlink" width="200" height="200"><svg xmlns="http://www.w3.org/2000/svg" version="1.1" xmlns:xlink="http://www.w3.org/1999/xlink" viewBox="0 0 200 200"><rect width="200" height="200" fill="url('#gradient')"></rect><defs><linearGradient id="SvgjsLinearGradient1001" gradientTransform="rotate(45 0.5 0.5)"><stop offset="0%" stop-color="#6957ff"></stop><stop offset="100%" stop-color="#ea33a0"></stop></linearGradient></defs><g><g fill="#ffffff" transform="matrix(6.5400354819633355,0,0,6.5400354819633355,38.98041270718216,145.91253071102005)" stroke="#ffffff" stroke-width="0.2"><path d="M5.75 0L1.07 0L1.07-14.22L5.65-14.22Q7.54-14.22 9.04-13.36Q10.55-12.51 11.39-10.95Q12.24-9.39 12.25-7.46L12.25-7.46L12.25-6.81Q12.25-4.85 11.42-3.31Q10.60-1.76 9.10-0.88Q7.60-0.01 5.75 0L5.75 0ZM5.65-11.57L4.50-11.57L4.50-2.64L5.69-2.64Q7.17-2.64 7.96-3.69Q8.75-4.74 8.75-6.81L8.75-6.81L8.75-7.42Q8.75-9.48 7.96-10.53Q7.17-11.57 5.65-11.57L5.65-11.57ZM17.54-14.22L17.12-4.50L14.45-4.50L14.03-14.22L17.54-14.22ZM13.94-1.47L13.94-1.47Q13.94-2.20 14.46-2.66Q14.98-3.13 15.76-3.13Q16.54-3.13 17.07-2.66Q17.59-2.20 17.59-1.47Q17.59-0.75 17.07-0.29Q16.54 0.18 15.76 0.18Q14.98 0.18 14.46-0.29Q13.94-0.75 13.94-1.47Z"></path></g></g></svg><style>@media (prefers-color-scheme: light) { :root { filter: none; } }
@media (prefers-color-scheme: dark) { :root { filter: none; } }
</style></svg>